<svg xmlns="http://www.w3.org/2000/svg" width="17.51" height="15.292" viewBox="0 0 17.51 15.292">
						<g transform="translate(-1141.662 -24.823)">
							<path d="M1148.211,35.954l.053-.524.575.157.785.262.628.453s-.453.925-.471.977-.54.977-.54.977l-.541.4-.715.017.069-1.8Z" fill="#94cc00"></path>
						    <path d="M1142.034,32.265l5.635,2.775v4.607a.218.218,0,0,0,.149.207.236.236,0,0,0,.069.011.218.218,0,0,0,.175-.087l2.029-2.694c.072-.1.351-.53.254-.6s-.413.005-.6.34l-1.637,2.173V35.254l6.089,3a.216.216,0,0,0,.1.023.22.22,0,0,0,.083-.017.216.216,0,0,0,.123-.13l4.413-12.768a.2.2,0,0,0,.01-.052l0-.008a.234.234,0,0,0-.01-.074l-.008-.019a.211.211,0,0,0-.03-.052l-.007-.011-.006-.005-.007-.009a.217.217,0,0,0-.054-.037l-.011,0a.267.267,0,0,0-.062-.016h-.023a.217.217,0,0,0-.056.008l-.019.005-.007,0-16.575,6.779a.218.218,0,0,0-.013.4Zm12.132,5.488-5.891-2.9,9.951-8.845Zm3.439-11.778-9.753,8.669-5.191-2.557Z" fill="none" stroke="#2a2a2a" stroke-miterlimit="10" stroke-width="0.5"></path>
					  	</g>
					</svg>