<svg xmlns="http://www.w3.org/2000/svg" width="425.54" height="245.844" viewBox="0 0 425.54 245.844">
  <g id="Group_5" data-name="Group 5" transform="translate(-76.411 -214.692)">
    <path id="Path_1" data-name="Path 1" d="M484.1,366.428a106.562,106.562,0,0,1-.6,11.25,87.079,87.079,0,0,1-99.02,77.09l-10.73-1.53a473.732,473.732,0,0,0-100.98-3.55L213,453.978A130.316,130.316,0,0,1,78.381,359.8a51.351,51.351,0,0,1,11.66-48.93l1.94-2.1a24.751,24.751,0,1,0,31.07-33.59l4.15-4.49a50.055,50.055,0,0,1,66.82-6.01l1.94,1.46a48.592,48.592,0,0,0,51.39,4.81c.51-.26,1.02-.52,1.54-.78a192.652,192.652,0,0,1,81.46-20.73,24.126,24.126,0,0,0-.65,5.61,24.75,24.75,0,1,0,49.5,0c0-.27,0-.53-.02-.79a192.7,192.7,0,0,1,50.06,19.17A106.3,106.3,0,0,1,484.1,366.428Z" fill="#94d600" opacity="0.14"/>
    <circle id="Ellipse_1" data-name="Ellipse 1" cx="23.167" cy="23.167" r="23.167" transform="translate(196.758 259.456) rotate(-75.047)" fill="#fce3c3"/>
    <circle id="Ellipse_2" data-name="Ellipse 2" cx="12.5" cy="12.5" r="12.5" transform="translate(440.451 243.051)" fill="#fce3c3"/>
    <circle id="Ellipse_3" data-name="Ellipse 3" cx="4.5" cy="4.5" r="4.5" transform="translate(492.951 332.385)" fill="#fce3c3"/>
  </g>
  <path id="Path_2" data-name="Path 2" d="M295.914,276.959a3.364,3.364,0,0,1-2.592-1.212l-14.24-17.1-14.239,17.1a3.371,3.371,0,1,1-5.184-4.309l16.831-20.2a3.368,3.368,0,0,1,5.185,0l16.831,20.2a3.365,3.365,0,0,1-2.592,5.521Z" transform="translate(-76.411 -214.692)" fill="#fcbc04"/>
  <path id="Path_3" data-name="Path 3" d="M194.925,447.274h-6.732l6.732-33.663H208.39Z" transform="translate(-76.411 -214.692)" fill="#d0d8da"/>
  <path id="Path_4" data-name="Path 4" d="M248.786,447.274h6.732l-6.732-33.663H235.321Z" transform="translate(-76.411 -214.692)" fill="#d0d8da"/>
  <path id="Path_5" data-name="Path 5" d="M251.58,393.413h-9.527V379.948a13.467,13.467,0,0,0-13.465-13.466h-20.2a6.732,6.732,0,0,1-6.732-6.732v-9.527a10.537,10.537,0,0,0-9.56-10.671,10.1,10.1,0,0,0-10.638,10.1v50.494a13.466,13.466,0,0,0,13.465,13.466h57.227a10.1,10.1,0,0,0,10.1-10.638A10.536,10.536,0,0,0,251.58,393.413Z" transform="translate(-76.411 -214.692)" fill="#57b7eb"/>
  <path id="Path_6" data-name="Path 6" d="M250.806,423.709l-2.02-10.1H235.321l4.04,10.1Z" transform="translate(-76.411 -214.692)" fill="#93999a"/>
  <path id="Path_7" data-name="Path 7" d="M204.35,423.709l4.04-10.1H194.925l-2.02,10.1Z" transform="translate(-76.411 -214.692)" fill="#93999a"/>
  <path id="Path_8" data-name="Path 8" d="M231.954,390.047a13.466,13.466,0,0,0-13.465-13.466H205.024a13.466,13.466,0,0,1-13.465-13.465V339.552a10.1,10.1,0,0,0-10.1,10.1v50.494a13.466,13.466,0,0,0,13.465,13.466h57.227a10.1,10.1,0,0,0,10.1-10.1H245.42A13.466,13.466,0,0,1,231.954,390.047Z" transform="translate(-76.411 -214.692)" fill="#4891d3"/>
  <path id="Path_9" data-name="Path 9" d="M248.786,270.226h60.593V330.82H248.786Z" transform="translate(-76.411 -214.692)" fill="#57b7eb"/>
  <path id="Path_10" data-name="Path 10" d="M258.885,293.79V270.226h-10.1V330.82h60.593v-10.1H285.815A26.93,26.93,0,0,1,258.885,293.79Z" transform="translate(-76.411 -214.692)" fill="#4891d3"/>
  <path id="Path_11" data-name="Path 11" d="M285.815,290.424a6.732,6.732,0,1,1-6.733-6.733A6.733,6.733,0,0,1,285.815,290.424Z" transform="translate(-76.411 -214.692)" fill="#f9e109"/>
  <path id="Path_12" data-name="Path 12" d="M287.2,312.607a11.48,11.48,0,0,1-16.227,0,11.544,11.544,0,0,0-12.387-2.557l-9.8,3.938V330.82h60.593V313.988l-9.8-3.938A11.544,11.544,0,0,0,287.2,312.607Z" transform="translate(-76.411 -214.692)" fill="#e29610"/>
  <path id="Path_13" data-name="Path 13" d="M263.834,309.308a11.356,11.356,0,0,0-5.252.742l-9.8,3.938V330.82h60.593v-10.1H285.815A26.925,26.925,0,0,1,263.834,309.308Z" transform="translate(-76.411 -214.692)" fill="#af6e08"/>
  <g id="Group_6" data-name="Group 6" transform="translate(-76.411 -214.692)">
    <path id="Path_14" data-name="Path 14" d="M282.449,448.64a3.367,3.367,0,0,1-3.367-4.343l10.1-33.663a3.376,3.376,0,1,1,6.463,1.953l-10.1,33.663A3.366,3.366,0,0,1,282.449,448.64Z" fill="#e59730"/>
    <path id="Path_15" data-name="Path 15" d="M356.507,448.64a3.366,3.366,0,0,1-3.366-2.39l-10.1-33.663a3.505,3.505,0,1,1,6.733-1.953l10.1,33.663a3.367,3.367,0,0,1-3.367,4.343Z" fill="#e59730"/>
    <path id="Path_16" data-name="Path 16" d="M292.548,394.779h-6.733a10.1,10.1,0,1,1,0-20.2h6.733a3.367,3.367,0,0,1,0,6.733h-6.733a3.367,3.367,0,0,0,0,6.733h6.733a3.366,3.366,0,1,1,0,6.732Z" fill="#4891d3"/>
    <path id="Path_17" data-name="Path 17" d="M282.449,398.145h74.058a6.733,6.733,0,1,1,0,13.466H282.449a6.733,6.733,0,1,1,0-13.466Z" fill="#fcbc04"/>
    <path id="Path_18" data-name="Path 18" d="M289.181,374.581h16.832v23.564H289.181Z" fill="#4891d3"/>
    <path id="Path_19" data-name="Path 19" d="M353.141,381.314a13.467,13.467,0,0,0-6.733-11.614v-8.584H332.943V369.7a13.465,13.465,0,0,0-3.366,20.434v8.011h20.2v-8.011A13.465,13.465,0,0,0,353.141,381.314Z" fill="#d0d8da"/>
    <path id="Path_20" data-name="Path 20" d="M336.309,390.134a13.466,13.466,0,0,1,3.367-20.434v-1.851h6.732v-6.733H332.943V369.7a13.465,13.465,0,0,0-3.366,20.434v8.011h14.744A8.045,8.045,0,0,1,336.309,390.134Z" fill="#93999a"/>
    <path id="Path_21" data-name="Path 21" d="M295.914,374.581h10.1v16.832a10.1,10.1,0,0,1-10.1-10.1Z" fill="#57b7eb"/>
    <path id="Path_22" data-name="Path 22" d="M289.181,398.145h67.326a6.734,6.734,0,0,1,6.733,6.733H295.914A6.734,6.734,0,0,1,289.181,398.145Z" fill="#f9e109"/>
  </g>
  <g id="Group_8" data-name="Group 8" transform="translate(-76.411 -214.692)">
    <g id="Group_7" data-name="Group 7">
      <ellipse id="Ellipse_4" data-name="Ellipse 4" cx="190" cy="7.25" rx="190" ry="7.25" transform="translate(99.181 446.036)" fill="#f9e5cd"/>
    </g>
  </g>
  <g id="Group_17" data-name="Group 17" transform="translate(-76.411 -214.692)">
    <path id="Path_23" data-name="Path 23" d="M434.571,441.742a11.074,11.074,0,0,1-.83,1.531,10.967,10.967,0,0,1-2.992,3.052c-5.83,4.027-14.952,2.656-18.489,2.985-.489.044-1.254.091-2.227.139l-.614.028c-.974.044-2.117.089-3.365.131-6.176.217-15.023.426-19.795.53-2.058.047-3.356.072-3.356.072-.066,0-.129,0-.2,0s-.113,0-.17-.005a47.174,47.174,0,0,1-13.374-2.091,17.962,17.962,0,0,1-4.932-2.342,5.623,5.623,0,0,1-.931-.849,3.556,3.556,0,0,1-.247-.332c-.03-.047-.056-.091-.082-.138-1.319-2.408,1.331-6.769,1.465-6.987l0-.005v0l0,0c-1.371-4.369-.628-6.956-.628-6.956A8.276,8.276,0,0,1,367.5,433a4.578,4.578,0,0,1,1.075-.943,7.352,7.352,0,0,1,1.1-.6,10.842,10.842,0,0,1,1.286-.473,16.293,16.293,0,0,1,1.978-.463c.734-.125,1.23-.163,1.23-.163-.03-3.32,1-4.672,1-4.672,1.473.47,2.735,3.88,3.265,3.849.418-.021,1.081-1.227,6.14-4.865.355-.257.731-.523,1.131-.805.981-.684,2.1-1.446,3.382-2.29l.517-.339q.417-.271.84-.541c1.089-.694,2.208-1.373,3.354-2.027q.775-.444,1.568-.87,1.291-.7,2.622-1.334.642-.306,1.292-.6c.771-.346,1.552-.675,2.337-.983q1.588-.621,3.21-1.122c1.164-.357,2.338-.663,3.523-.908a.055.055,0,0,1,.019,0c.082-.019.167-.035.249-.052a31.456,31.456,0,0,1,5.409-.614c.111,0,.219-.007.33-.009a26.491,26.491,0,0,1,3.8.216,25.088,25.088,0,0,1,5.235,1.24,17.117,17.117,0,0,1,8.666,7.238,23.53,23.53,0,0,1,1.771,3.392q.3.708.56,1.434a26.682,26.682,0,0,1,1.465,6.778A19.217,19.217,0,0,1,434.571,441.742Z" fill="#ffedca"/>
    <path id="Path_24" data-name="Path 24" d="M433.741,443.273a10.906,10.906,0,0,1-.873,1.159c-5.442,6.312-16.6,4.506-20.608,4.878-.489.044-1.254.091-2.227.139l-.614.028c-.974.044-2.117.089-3.365.131-6.176.217-15.023.426-19.795.53-2.058.047-3.356.072-3.356.072-.066,0-.129,0-.2,0s-.113,0-.17-.005a47.174,47.174,0,0,1-13.374-2.091,17.962,17.962,0,0,1-4.932-2.342,5.623,5.623,0,0,1-.931-.849,3.556,3.556,0,0,1-.247-.332c-.708-2.467,1.439-7.3,1.439-7.3-1.371-4.369-.366-6.082-.366-6.082a8.276,8.276,0,0,1,3.685,2.507,4.576,4.576,0,0,1,1.075-.943,7.443,7.443,0,0,1,1.105-.6,10.828,10.828,0,0,1,1.286-.472,16.312,16.312,0,0,1,1.978-.464c.734-.124,1.23-.162,1.23-.162-.031-3.321.891-4.658.891-4.658,1.473.47,2.841,3.865,3.37,3.835.419-.021,1.082-1.228,6.141-4.866.355-.256.731-.522,1.131-.8.981-.685,2.1-1.447,3.382-2.291l.517-.338q.417-.273.84-.541c1.089-.694,2.208-1.374,3.353-2.028q.777-.444,1.569-.87c1.277-.686,2.585-1.336,3.913-1.931q1.158-.518,2.338-.983c1.058-.413,2.128-.79,3.21-1.121a38.68,38.68,0,0,1,3.791-.962,31.378,31.378,0,0,1,5.738-.623,26.352,26.352,0,0,1,3.8.216,25.146,25.146,0,0,1,5.235,1.239,17.131,17.131,0,0,1,8.666,7.239,23.1,23.1,0,0,1,1.458,2.686C436.659,430.907,436.662,438.8,433.741,443.273Z" fill="#ffd67b"/>
    <path id="Path_25" data-name="Path 25" d="M440.09,444.371c0,8.466-8.153,11.994-19.049,14.031-9.543,1.785-13.976.505-14.51-1.948a2.751,2.751,0,0,1,.007-1.11c.628-3.135,12.072-1.566,19.284-2.429s10.9-3.45,11.366-8.624a17.212,17.212,0,0,0-1.331-8.7l-.073-3.542-.007-.376S440.09,435.9,440.09,444.371Z" fill="#f3be65"/>
    <path id="Path_26" data-name="Path 26" d="M438.444,442.49c0,8.466-8.27,12.45-19.165,14.487-6.355,1.19-12.273,1.217-12.748-.523a2.751,2.751,0,0,1,.007-1.11c.628-3.135,12.072-1.566,19.284-2.429s10.9-3.45,11.366-8.624a17.212,17.212,0,0,0-1.331-8.7l-.073-3.542c.12.2.24.416.363.647A20.673,20.673,0,0,1,438.444,442.49Z" fill="#ffd67b"/>
    <path id="Path_27" data-name="Path 27" d="M439.071,444.409c0,8.467-8.075,10.546-18.971,12.582-6.355,1.19-11.147.548-13.327-.424a3.086,3.086,0,0,1,.059-.694c.628-3.134,12.072-1.566,19.284-2.429s10.9-3.45,11.366-8.624a19.675,19.675,0,0,0-1.553-9.372l-.148-3.75C438.492,434.476,439.071,439.9,439.071,444.409Z" fill="#ffd67b"/>
    <g id="Group_9" data-name="Group 9">
      <path id="Path_28" data-name="Path 28" d="M388.665,430.416a12.9,12.9,0,0,0-4.09-5.738c.355-.257.731-.523,1.131-.805A15.288,15.288,0,0,1,388.665,430.416Z" fill="#f3be65"/>
      <path id="Path_29" data-name="Path 29" d="M393.808,428.3a15.453,15.453,0,0,0-4.72-6.716l.517-.339q.417-.271.84-.541A18.327,18.327,0,0,1,393.808,428.3Z" fill="#f3be65"/>
      <path id="Path_30" data-name="Path 30" d="M399.062,425.792a14.993,14.993,0,0,0-5.263-7.116q.775-.444,1.568-.87A18.057,18.057,0,0,1,399.062,425.792Z" fill="#f3be65"/>
      <path id="Path_31" data-name="Path 31" d="M406.526,425.2c-2.168-5.484-5.225-8.113-7.245-9.322.771-.346,1.552-.675,2.337-.983C405.442,418.96,406.491,424.979,406.526,425.2Z" fill="#f3be65"/>
      <path id="Path_32" data-name="Path 32" d="M415.214,426.491c-3.18-8.048-7.825-11.411-10.386-12.721a39.041,39.041,0,0,1,3.791-.962C413.763,418.144,415.164,426.2,415.214,426.491Z" fill="#f3be65"/>
      <path id="Path_33" data-name="Path 33" d="M421.378,426.053c-1.416-7.652-4.72-11.815-7.02-13.868a26.491,26.491,0,0,1,3.8.216C421.6,418.577,421.378,426.053,421.378,426.053Z" fill="#f3be65"/>
    </g>
    <path id="Path_34" data-name="Path 34" d="M382.538,450.2c-9.9-.223-17.25-2.933-19.237-5.282l1.082-1.039s.019.55,1.43.823.021-2.822.823-3.94a2.729,2.729,0,0,1,4.273-.371c1.665,1.569,1.971,7.848,11.26,7.2Z" fill="#f3be65"/>
    <path id="Path_35" data-name="Path 35" d="M433.741,443.273a10.906,10.906,0,0,1-.873,1.159c-5.442,6.312-16.6,4.506-20.608,4.878-.489.044-1.254.091-2.227.139l-.614.028c-.974.044-2.117.089-3.365.131-6.176.217-15.023.426-19.795.53-2.058.047-3.356.072-3.356.072-.066,0-.129,0-.2,0s-.113,0-.17-.005a47.174,47.174,0,0,1-13.374-2.091,91.847,91.847,0,0,0,12.269.337c5.174-.353,17.7-11.7,27.1-9.76s29.515-4.821,23.753-17.285q-.125-.266-.231-.523C436.568,428,437.179,438.007,433.741,443.273Z" fill="#f3be65"/>
    <path id="Path_36" data-name="Path 36" d="M406.8,449.608c-8.84.311-23.15.6-23.15.6-.066,0-.13,0-.2,0a4.262,4.262,0,0,1,.412-7.023,10.6,10.6,0,0,1,6.427-1.556c6,.51,7.056,5.486,12.307,6.545A11.375,11.375,0,0,1,406.8,449.608Z" fill="#f3be65"/>
    <path id="Path_37" data-name="Path 37" d="M409.419,449.477c-.974.044-2.117.089-3.365.131-6.176.217-15.023.426-19.795.53a4.255,4.255,0,0,1-.082-7.345,10.623,10.623,0,0,1,6.427-1.559c6,.51,7.055,5.489,12.307,6.547C407.6,448.322,408.838,448.9,409.419,449.477Z" fill="#f3be65"/>
    <path id="Path_38" data-name="Path 38" d="M408.438,450.916c.017.2-.138.376-.442.534a12.25,12.25,0,0,1-4.351.731,45.142,45.142,0,0,1-4.651-.049c-3.589-.209-9.979-.052-14-1.971a4.255,4.255,0,0,1-1.99-5.7,4.193,4.193,0,0,1,1.642-1.788,10.632,10.632,0,0,1,6.427-1.559c6,.511,7.056,5.489,12.307,6.548.162.032.318.065.47.1C408.619,448.8,408.363,449.966,408.438,450.916Z" fill="#ffedca"/>
    <path id="Path_39" data-name="Path 39" d="M408,451.45a1.042,1.042,0,0,1-.146.07c-.051.022-.106.045-.164.066a2.936,2.936,0,0,1-.28.1c-.068.019-.139.04-.212.059-.157.042-.329.082-.515.117-.059.012-.117.024-.179.035-.423.078-.907.141-1.444.191-.2.019-.409.035-.625.052-.134.009-.271.018-.409.025s-.25.015-.377.019a45.142,45.142,0,0,1-4.651-.049c-3.589-.209-9.979-.052-14-1.971a3.694,3.694,0,0,1-.778-6.78,10.623,10.623,0,0,1,6.427-1.559c6,.51,7.055,5.489,12.307,6.547.162.033.317.066.47.1.266.059.517.118.753.175C407.911,449.571,407.947,450.587,408,451.45Z" fill="#ffd67b"/>
    <path id="Path_40" data-name="Path 40" d="M434.025,434.924a34.267,34.267,0,0,1-1.157,9.508c-5.442,6.312-16.6,4.506-20.608,4.878-.489.044-1.254.091-2.227.139a3.389,3.389,0,0,1,.414-1.414c.649-1.235,7.643-1.529,7.234-2.469s-3.528-1.47-3.528-7.7c0-.13,0-.259,0-.386a9.568,9.568,0,0,1,8.666-9.134C427.306,427.9,434.025,428.342,434.025,434.924Z" fill="#f3be65"/>
    <path id="Path_41" data-name="Path 41" d="M435.935,434.926c0,.263-.005.521-.01.779s-.014.507-.028.756c-.369,7.5-3.381,12.222-5.915,13.909a4.965,4.965,0,0,1-.732.4l-.182.072c-.09.033-.181.062-.272.091s-.206.057-.311.076a.1.1,0,0,1-.033.005,24.086,24.086,0,0,1-2.606.383c-.02,0-.039,0-.058,0-2.931.273-6.355.22-9.9.22a8.2,8.2,0,0,1-2.252-.263c-2.233-.645-2.156-1.975-1.276-3.323s7.645-1.53,7.234-2.472-3.529-1.468-3.529-7.7c0-.129,0-.258.01-.383a9.551,9.551,0,0,1,8.659-9.133,16.316,16.316,0,0,1,7.355.684h0a6.99,6.99,0,0,1,1.626.909q.2.158.387.329c.106.1.206.192.3.3s.191.21.277.32.163.211.234.321a.383.383,0,0,1,.039.057c.057.086.11.172.162.258a4.864,4.864,0,0,1,.273.545,3.252,3.252,0,0,1,.138.349.064.064,0,0,1,.015.034,4.43,4.43,0,0,1,.138.445c.043.153.077.306.11.463,0,.01.005.02.005.029.019.091.034.187.048.282s.029.2.038.3A8.691,8.691,0,0,1,435.935,434.926Z" fill="#ffedca"/>
    <path id="Path_42" data-name="Path 42" d="M435.935,434.926c0,.263-.005.521-.01.779s-.014.507-.028.756c-.369,7.5-3.381,12.222-5.915,13.909a4.965,4.965,0,0,1-.732.4l-.182.072c-.09.033-.181.062-.272.091s-.206.057-.311.076a.1.1,0,0,1-.033.005c-.2.057.588.029.253.077-.861.133-1.827.234-2.859.306-.02,0-.039,0-.058,0-3.079.22-6.718.22-9.9.22a8.2,8.2,0,0,1-2.252-.263c-1.592-.75-1.186-2.223-.717-3.122.65-1.229,7.641-1.525,7.235-2.467s-3.529-1.468-3.529-7.7c0-.129.005-.263.009-.387a9.565,9.565,0,0,1,8.66-9.138,17.5,17.5,0,0,1,6.8.483h0a6.99,6.99,0,0,1,1.626.909q.2.158.387.329c.106.1.206.192.3.3s.191.21.277.32.163.211.234.321a.383.383,0,0,1,.039.057c.057.086.11.172.162.258a4.864,4.864,0,0,1,.273.545,3.252,3.252,0,0,1,.138.349.064.064,0,0,1,.015.034,4.43,4.43,0,0,1,.138.445c.043.153.077.306.11.463,0,.01.005.02.005.029.019.091.034.187.048.282s.029.2.038.3A8.691,8.691,0,0,1,435.935,434.926Z" fill="#ffd67b"/>
    <path id="Path_43" data-name="Path 43" d="M364.232,445.768a5.623,5.623,0,0,1-.931-.849,2.947,2.947,0,0,1-.329-.47c-1.319-2.408,1.331-6.769,1.465-6.987-.085.216-1.714,4.346-.054,6.418A1.373,1.373,0,0,1,364.232,445.768Z" fill="#f3be65"/>
    <path id="Path_44" data-name="Path 44" d="M364.824,436.335a17.724,17.724,0,0,1-.412-4.733,3.791,3.791,0,0,1,2.352,1.94A14.434,14.434,0,0,0,364.824,436.335Z" fill="#f3be65"/>
    <path id="Path_45" data-name="Path 45" d="M375.407,426.605a14.04,14.04,0,0,0-.559,3.88,13.677,13.677,0,0,1,2.969-.353A13.412,13.412,0,0,0,375.407,426.605Z" fill="#f3be65"/>
    <g id="Group_16" data-name="Group 16">
      <g id="Group_15" data-name="Group 15">
        <g id="Group_10" data-name="Group 10">
          <path id="Path_46" data-name="Path 46" d="M364.392,441.014a1.512,1.512,0,0,1,.116-.522,2,2,0,0,1,.111-.237,1.685,1.685,0,0,1,.161-.248,2.039,2.039,0,0,1,.212-.239,2.17,2.17,0,0,1,.265-.208,1.517,1.517,0,0,1,.3-.154,1.216,1.216,0,0,1,.318-.088,1.178,1.178,0,0,1,.305-.019c.048,0,.1,0,.139.008l.128.029a1.108,1.108,0,0,1,.214.063c.061.026.112.054.154.076.083.045.126.074.126.074s-.055.009-.146.017c-.046,0-.1.01-.16.011s-.129.022-.2.029a1.119,1.119,0,0,0-.224.046,1.34,1.34,0,0,0-.235.071c-.039.016-.079.029-.12.043l-.116.058a1.772,1.772,0,0,0-.231.131c-.077.044-.146.106-.22.155s-.141.112-.2.176-.128.118-.186.178-.113.117-.166.169Z" fill="#894d16"/>
        </g>
        <g id="Group_11" data-name="Group 11">
          <path id="Path_47" data-name="Path 47" d="M369.53,438.853a.959.959,0,0,1,.113-.149,1.34,1.34,0,0,1,.156-.148,1.515,1.515,0,0,1,.23-.163,1.734,1.734,0,0,1,.3-.148,1.753,1.753,0,0,1,.364-.1,2.413,2.413,0,0,1,.4-.045,2.931,2.931,0,0,1,.417.033,2.536,2.536,0,0,1,.4.1,2.582,2.582,0,0,1,.368.153c.114.059.222.119.32.182s.182.136.261.2a1.366,1.366,0,0,1,.2.185c.058.058.105.113.144.156.077.089.117.142.117.142s-.065-.022-.173-.066-.251-.12-.431-.187c-.09-.035-.185-.072-.283-.117s-.209-.068-.316-.111-.225-.06-.338-.1a3.4,3.4,0,0,0-.35-.074c-.117-.023-.235-.027-.351-.042a3.272,3.272,0,0,0-.343,0,3.02,3.02,0,0,0-.324.031c-.1.018-.2.036-.29.058A3.376,3.376,0,0,0,369.53,438.853Z" fill="#894d16"/>
        </g>
        <g id="Group_12" data-name="Group 12">
          <path id="Path_48" data-name="Path 48" d="M367.573,440.925a.409.409,0,0,0-.071.542c.237.346.762.869,1.13.761s.5-1.219.367-1.478S368.154,440.434,367.573,440.925Z" fill="#894d16"/>
        </g>
        <g id="Group_13" data-name="Group 13">
          <rect id="Rectangle_4" data-name="Rectangle 4" width="0.235" height="1.534" transform="translate(368.44 442.001) rotate(-23.227)" fill="#894d16"/>
        </g>
        <g id="Group_14" data-name="Group 14">
          <path id="Path_49" data-name="Path 49" d="M367.485,442.866a2.484,2.484,0,0,0,.484.34,2.109,2.109,0,0,0,.579.218,1.226,1.226,0,0,0,.366.019.377.377,0,0,0,.061-.008l.041-.013a.636.636,0,0,0,.085-.027.967.967,0,0,0,.183-.107,1.605,1.605,0,0,0,.265-.262,2.27,2.27,0,0,0,.2-.283,3.847,3.847,0,0,0,.28-.539,4.024,4.024,0,0,0,.192-.557l-.086.137c-.051.088-.133.21-.225.357s-.206.314-.332.485c-.062.086-.132.171-.2.253a1.3,1.3,0,0,1-.233.22.859.859,0,0,1-.113.076.519.519,0,0,1-.079.028l-.041.013c.014,0-.018,0-.024,0a1.252,1.252,0,0,1-.306,0,2.911,2.911,0,0,1-.557-.137c-.162-.057-.3-.109-.39-.151Z" fill="#894d16"/>
        </g>
      </g>
    </g>
  </g>
  <g id="Group_23" data-name="Group 23" transform="translate(-76.411 -214.692)">
    <g id="Group_18" data-name="Group 18">
      <path id="Path_50" data-name="Path 50" d="M363.666,429.273l.4.927-1.124,3.51,2.315-1.009.508,1.166-4.228,1.842-.4-.926,1.123-3.51-2.152.937-.512-1.174Z" fill="#894d16"/>
    </g>
    <g id="Group_19" data-name="Group 19">
      <path id="Path_51" data-name="Path 51" d="M370.053,417.76l.1,1.006-2.133,3.006,2.512-.262.132,1.265-4.587.478-.105-1.005,2.133-3.006-2.336.243-.132-1.275Z" fill="#894d16"/>
    </g>
    <g id="Group_20" data-name="Group 20" opacity="0.58">
      <path id="Path_52" data-name="Path 52" d="M362.2,407.1l.08.767-1.628,2.295,1.917-.2.1.966-3.5.364-.079-.766,1.627-2.3-1.782.186-.1-.973Z" fill="#894d16"/>
    </g>
    <g id="Group_21" data-name="Group 21" opacity="0.39">
      <path id="Path_53" data-name="Path 53" d="M371.244,396.784l-.138.558-1.719,1.2,1.394.344-.173.7-2.545-.628.138-.557,1.719-1.2-1.3-.32.174-.707Z" fill="#894d16"/>
    </g>
    <g id="Group_22" data-name="Group 22" opacity="0.15">
      <path id="Path_54" data-name="Path 54" d="M361.515,391.413l.185.544-.805,1.933,1.359-.46.232.685-2.482.84-.184-.543.8-1.934-1.264.428-.233-.69Z" fill="#894d16"/>
    </g>
  </g>
</svg>
