<svg xmlns="http://www.w3.org/2000/svg" width="13.387" height="17.826" viewBox="0 0 13.387 17.826">
						<g transform="translate(-1358.411 -23.556)">
						    <path d="M1368.229,25.934a.212.212,0,0,0,.212-.212v-.339a1.564,1.564,0,0,0-1.548-1.577h-6.685a1.564,1.564,0,0,0-1.547,1.577V39.556a1.563,1.563,0,0,0,1.547,1.576h6.685a1.564,1.564,0,0,0,1.548-1.576V32.575a.212.212,0,0,0-.423,0v6.981a1.141,1.141,0,0,1-1.125,1.154h-6.685a1.141,1.141,0,0,1-1.124-1.154V25.383a1.141,1.141,0,0,1,1.124-1.154h6.685a1.141,1.141,0,0,1,1.125,1.154v.339A.212.212,0,0,0,1368.229,25.934Z" fill="none" stroke="#2a2a2a" stroke-miterlimit="10" stroke-width="0.5"></path>
						    <path d="M1367.233,36.695a.21.21,0,0,0-.211-.211h-6.942a.211.211,0,1,0,0,.422h6.942A.21.21,0,0,0,1367.233,36.695Z" fill="none" stroke="#2a2a2a" stroke-miterlimit="10" stroke-width="0.5"></path>
						    <circle cx="0.634" cy="0.634" r="0.634" transform="translate(1362.917 38.174)" fill="none" stroke="#2a2a2a" stroke-miterlimit="10" stroke-width="0.5"></circle>
						    <path d="M1370.991,26.779h-5.359a.807.807,0,0,0-.806.807v3.126a.806.806,0,0,0,.806.806h.682v1.129a.212.212,0,0,0,.136.2.221.221,0,0,0,.076.013.21.21,0,0,0,.157-.071l1.128-1.269h3.18a.807.807,0,0,0,.807-.806V27.586A.808.808,0,0,0,1370.991,26.779Z" fill="#94cc00"></path>
						</g>
					</svg>