<svg version="1.1" xmlns="http://www.w3.org/2000/svg" xmlns:xlink="http://www.w3.org/1999/xlink" viewBox="0 0 28 28" style="enable-background:new 0 0 28 28;" xml:space="preserve">
    <g>
        <path fill="#F7F70B" d="M14,6.4c-4.2,0-7.6,3.4-7.6,7.6c0,4.2,3.4,7.6,7.6,7.6c4.2,0,7.6-3.4,7.6-7.6C21.6,9.8,18.2,6.4,14,6.4"></path>
        <path fill="#D6CD1E" d="M14,6.4c-4.2,0-7.6,3.4-7.6,7.6c0,4.2,3.4,7.6,7.6,7.6c4.2,0,7.6-3.4,7.6-7.6C21.6,9.8,18.2,6.4,14,6.4"></path>
        <path fill="#F7F70B" d="M14.9,8.3c-3.6,0-6.5,2.9-6.5,6.5c0,3.6,2.9,6.5,6.5,6.5c1,0,2-0.2,2.9-0.7c1.5-0.9,2.7-2.2,3.3-3.9
            c0.2-0.6,0.3-1.3,0.3-1.9C21.4,11.2,18.5,8.3,14.9,8.3"></path>
        <path d="M14,5.8c-4.5,0-8.2,3.7-8.2,8.2c0,4.5,3.7,8.2,8.2,8.2c4.5,0,8.2-3.7,8.2-8.2C22.2,9.5,18.5,5.8,14,5.8 M14,20.9
            c-3.8,0-6.9-3.1-6.9-6.9c0-3.8,3.1-6.9,6.9-6.9c3.8,0,6.9,3.1,6.9,6.9C20.9,17.8,17.8,20.9,14,20.9"></path>
        <path d="M18.4,15.4c-0.3-0.2-0.7,0-0.8,0.3c-0.7,1.3-2,2.2-3.5,2.2c-1.5,0-2.9-0.9-3.5-2.2c-0.1-0.3-0.5-0.4-0.8-0.3
            c-0.3,0.2-0.4,0.5-0.3,0.8c0.8,1.8,2.7,2.9,4.6,2.9c2,0,3.8-1.1,4.7-2.9C18.8,15.9,18.7,15.6,18.4,15.4"></path>
        <path d="M4.1,13.4H0.6C0.3,13.4,0,13.6,0,14c0,0.3,0.3,0.6,0.6,0.6h3.4c0.3,0,0.6-0.3,0.6-0.6C4.7,13.6,4.4,13.4,4.1,13.4"></path>
        <path d="M27.4,13.4h-3.4c-0.3,0-0.6,0.3-0.6,0.6c0,0.3,0.3,0.6,0.6,0.6h3.4c0.3,0,0.6-0.3,0.6-0.6C28,13.6,27.7,13.4,27.4,13.4"></path>
        <path d="M14,23.3c-0.3,0-0.6,0.3-0.6,0.6v3.4c0,0.3,0.3,0.6,0.6,0.6c0.3,0,0.6-0.3,0.6-0.6v-3.4C14.6,23.6,14.3,23.3,14,23.3"></path>
        <path d="M14,0c-0.3,0-0.6,0.3-0.6,0.6v3.4c0,0.3,0.3,0.6,0.6,0.6c0.3,0,0.6-0.3,0.6-0.6V0.6C14.6,0.3,14.3,0,14,0"></path>
        <path d="M7.4,20.6c-0.2-0.2-0.6-0.2-0.9,0L4.1,23c-0.2,0.2-0.2,0.6,0,0.9c0.1,0.1,0.3,0.2,0.4,0.2c0.2,0,0.3-0.1,0.4-0.2l2.4-2.4
            C7.7,21.2,7.7,20.8,7.4,20.6"></path>
        <path d="M23.9,4.1c-0.2-0.2-0.6-0.2-0.9,0l-2.4,2.4c-0.2,0.2-0.2,0.6,0,0.9c0.1,0.1,0.3,0.2,0.4,0.2c0.2,0,0.3-0.1,0.4-0.2L23.9,5
            C24.1,4.7,24.1,4.3,23.9,4.1"></path>
        <path d="M7.4,6.5L5,4.1c-0.2-0.2-0.6-0.2-0.9,0C3.9,4.3,3.9,4.7,4.1,5l2.4,2.4C6.7,7.5,6.8,7.6,7,7.6c0.2,0,0.3-0.1,0.4-0.2
            C7.7,7.2,7.7,6.8,7.4,6.5"></path>
        <path d="M23.9,23l-2.4-2.4c-0.2-0.2-0.6-0.2-0.9,0c-0.2,0.2-0.2,0.6,0,0.9l2.4,2.4c0.1,0.1,0.3,0.2,0.4,0.2s0.3-0.1,0.4-0.2
            C24.1,23.6,24.1,23.2,23.9,23"></path>
        <path d="M11.8,11.1c-0.5,0-0.9,0.4-0.9,0.9c0,0.5,0.4,0.9,0.9,0.9c0.5,0,0.9-0.4,0.9-0.9C12.7,11.5,12.3,11.1,11.8,11.1"></path>
        <path d="M16.3,11.1c-0.5,0-0.9,0.4-0.9,0.9c0,0.5,0.4,0.9,0.9,0.9c0.5,0,0.9-0.4,0.9-0.9C17.2,11.5,16.8,11.1,16.3,11.1"></path>
    </g>
</svg>