<svg xmlns="http://www.w3.org/2000/svg" viewBox="0 0 411.2 73.576">
    <g transform="translate(-5060 -2844)">
        <g transform="translate(5060 2844)">
        <g transform="translate(94.439 11.635)">
            <path d="M204.212,34.712H201.37c-.5,0-.5,0-.5-.554V31.478c0-.608,0-.608.5-.608h2.841c.5,0,.5,0,.5.608v2.681C204.73,34.712,204.73,34.712,204.212,34.712Z" transform="translate(41.852 4.389)" fill="#592c82"/>
            <path d="M149.894,28.547l-6.04-1.037a2.214,2.214,0,0,1-1.984-2.43c0-2.127,1.984-2.627,4.361-2.627,2.788,0,4.718.929,5.933,2.627l4.968-2.43c-1.823-3.163-5.272-5.379-10.919-5.379-6.7,0-10.973,2.824-10.973,7.81,0,5.79,3.5,7.613,6.952,8.2l6.505,1.144a2.519,2.519,0,0,1,2.341,2.716c0,2.716-3.092,3.217-5.129,3.217a6.531,6.531,0,0,1-5.719-2.645l-4.7,3.056c2.466,3.324,6.094,4.629,10.419,4.629,6.04,0,11.777-2.573,11.777-9.15C157.7,31.12,154.058,29.243,149.894,28.547Z" transform="translate(-9.804 -6.315)" fill="#592c82"/>
            <path d="M120.562,17.27a11.078,11.078,0,0,0-7.667,3v-3H106.14v28.2H112.9V24.954c1.769-1.215,4.057-2.395,6.148-2.395,3.145,0,4.11,2.341,4.11,5.629V45.452h6.755V28.189C129.908,22.2,127.174,17.27,120.562,17.27Z" transform="translate(-32.709 -6.315)" fill="#592c82"/>
            <g transform="translate(0 10.955)">
            <path d="M74.249,20.11a8.914,8.914,0,0,0-5.379,1.68V37.159a13.691,13.691,0,0,0,5.326.983c4.11,0,5.933-2.573,5.933-9.257C80.129,22.433,78.306,20.11,74.249,20.11Z" transform="translate(-62.043 -15.035)" fill="none"/>
            <path d="M77.953,17.288a10.2,10.2,0,0,0-6.094,2.073V17.27H65.05V56.622h6.809V44.416a15.149,15.149,0,0,0,5.326,1.019c9.6,0,12.742-6.523,12.742-14.3C89.944,22.6,86.549,17.288,77.953,17.288ZM77.2,40.395a13.963,13.963,0,0,1-5.326-.983V24.043a8.947,8.947,0,0,1,5.379-1.68c4.057,0,5.88,2.323,5.88,8.81C83.135,37.822,81.313,40.395,77.2,40.395Z" transform="translate(-65.05 -17.27)" fill="#592c82"/>
            </g>
            <path d="M132.44,22.96" transform="translate(-12.008 -1.837)" fill="#592c82"/>
            <path d="M140.218,43.139a7.033,7.033,0,0,1-4.718,1.68c-1.876,0-2.841-.965-2.841-2.967V27.162h7.72l1.626-5.147h-9.346V11.15l-6.809,1.984v8.882h-4.11v5.147h4.146a18.6,18.6,0,0,1-.036,2.037V41.852c0,6.076,3.753,8.364,8.882,8.364,3.967,0,7.005-1.126,9.186-3.217Z" transform="translate(-20.43 -11.132)" fill="#592c82"/>
            <path d="M164.842,21.97a10.99,10.99,0,0,0-7.613,2.949V11.14l-6.809,2V50.277h6.809V29.6a11.739,11.739,0,0,1,6.094-2.359c3.145,0,4.11,2.341,4.11,5.629V50.259h6.755V32.871C174.188,26.884,171.454,21.97,164.842,21.97Z" transform="translate(2.144 -11.14)" fill="#592c82"/>
            <path d="M88.761,11.14l-6.791,2V50.259h6.791Z" transform="translate(-51.732 -11.14)" fill="#592c82"/>
            <path d="M196.753,17.28a10.3,10.3,0,0,0-6.094,2.055V17.28H183.85V56.292h6.809V44.176a15.108,15.108,0,0,0,5.326,1c9.6,0,12.742-6.469,12.742-14.172C208.744,22.516,205.331,17.28,196.753,17.28ZM196,40.173a13.691,13.691,0,0,1-5.326-.983V23.928a8.879,8.879,0,0,1,5.379-1.662c4.057,0,5.88,2.305,5.88,8.721C201.935,37.617,200.112,40.173,196,40.173Z" transform="translate(28.456 -6.307)" fill="#592c82"/>
            <path d="M179.242,45.437c-9.4,0-12.742-5.647-12.742-14.1s3.342-14.047,12.742-14.047,12.8,5.594,12.8,14.047S188.642,45.437,179.242,45.437Zm0-22.893c-4.164,0-5.933,2.073-5.933,8.81s1.769,8.846,5.933,8.846c4.11,0,5.987-2.073,5.987-8.846S183.406,22.544,179.242,22.544Z" transform="translate(14.8 -6.299)" fill="#592c82"/>
            <path d="M102,17.27c-4.772,0-8.381,1.537-10.865,5.057L95.9,25.1A6.966,6.966,0,0,1,102,22.417c3.4,0,4.36,1.448,4.36,3.27v2.824a34.986,34.986,0,0,0-6.4-.643c-5.486,0-10.562,1.626-10.562,8.381,0,5.4,3.2,9.221,10.043,9.221a11.439,11.439,0,0,0,6.9-2.234v2.18H113.1V25.687C113.115,22.524,111.042,17.27,102,17.27Zm4.36,17.674v3.574a11.336,11.336,0,0,1-6.094,2.037c-2.287,0-4.11-1.233-4.11-4.307,0-3.27,2.7-4.11,5.433-4.11a34.145,34.145,0,0,1,4.772.447v2.359Z" transform="translate(-45.884 -6.315)" fill="#592c82"/>
            <g transform="translate(252.855 10.848)">
            <path d="M239.673,45.51V27.639c0-4.95-.84-8.31-5.147-8.31-2.18,0-4.5,1.573-7.023,3.306l-2.18,1.483a25.867,25.867,0,0,1,.25,3.074v18.3h-2.466V27.21c0-3.556-.84-7.863-5.147-7.863-1.93,0-4.4,1.984-6.434,3.413l-2.52,1.787v20.98H206.54V18.15h1.733l.751,3.9,2.859-2.019c1.823-1.287,3.717-2.716,6.076-2.716a6.851,6.851,0,0,1,6.88,4.789l2.663-1.876c2.43-1.68,4.4-2.913,7.023-2.913,5.236,0,7.559,3.02,7.559,10.24V45.51h-2.413Z" transform="translate(-206.54 -17.131)" fill="#592d81"/>
            <path d="M232.013,31.846c.2,7.863,2.573,11.688,9.4,11.688,3.806,0,6.434-1.251,7.953-3.878l2.073.894c-1.68,3.127-4.593,5.022-10.026,5.022-8.167,0-11.813-4.128-11.813-14.225,0-9.2,2.913-14.136,11.866-14.136,8.113,0,10.83,5.772,10.83,13.886v.751Zm9.436-12.492c-6.183,0-9.2,2.484-9.4,10.454H249.7C249.723,24.09,247.739,19.355,241.448,19.355Z" transform="translate(-188.39 -17.21)" fill="#592d81"/>
            </g>
        </g>
        <g transform="translate(0 0)">
            <path d="M51.067,20.079a31.009,31.009,0,0,1,4.736-.858,30.149,30.149,0,0,0-34.044,23.59,29.823,29.823,0,0,0-.3,10.776L29.64,45.4A29.107,29.107,0,0,1,51.067,20.079" transform="translate(-5.201 6.585)" fill="#a2d45e"/>
            <path d="M78.63,6.2,67.711,17.119a32.5,32.5,0,0,1-.214,13.4c-.214.911-.447,1.823-.733,2.716A32.549,32.549,0,0,1,44.121,54.827a32.292,32.292,0,0,1-14.636.518h0L21.3,63.53a43.341,43.341,0,0,0,28.647,2.109A43.5,43.5,0,0,0,77.218,43.872a40.183,40.183,0,0,0,2.466-5.611A43.147,43.147,0,0,0,82.24,22.516,42.6,42.6,0,0,0,80.756,12.24,43.155,43.155,0,0,0,78.63,6.2" transform="translate(-5.046 -3.393)" fill="#6ba43a"/>
            <path d="M18.755,46.609A50.74,50.74,0,0,1,74.869,18.355L85.788,7.436A55.631,55.631,0,0,0,68.65,4.631,56.087,56.087,0,0,0,15.341,42.213,57.337,57.337,0,0,0,12.7,53.239a55.923,55.923,0,0,0,1.43,21.945c.268,1.037.572,2.037.894,3.02A50.316,50.316,0,0,1,15.395,56.1a53.443,53.443,0,0,1,3.36-9.489" transform="translate(-12.205 -4.629)" fill="#93d500"/>
        </g>
        </g>
    </g>
</svg>