<svg version="1.1" xmlns="http://www.w3.org/2000/svg" xmlns:xlink="http://www.w3.org/1999/xlink" x="0px" y="0px" width="12.275px" height="14.729px" viewBox="0 0 12.275 14.729" enable-background="new 0 0 12.275 14.729" xml:space="preserve">
												<path fill="#7A8991" d="M11.662,1.534h-1.228H8.593V0.613C8.593,0.275,8.317,0,7.979,0H4.297c-0.34,0-0.614,0.275-0.614,0.613
													v0.921H1.842H0.614C0.274,1.534,0,1.81,0,2.147c0,0.339,0.274,0.614,0.614,0.614h0.643l0.584,11.386
													c0.018,0.326,0.287,0.582,0.613,0.582H9.82c0.327,0,0.597-0.256,0.613-0.582l0.584-11.386h0.644c0.338,0,0.613-0.275,0.613-0.614
													C12.275,1.81,12,1.534,11.662,1.534 M9.237,13.502H3.039L2.487,2.762h7.301L9.237,13.502z"></path>
												<path fill="#7A8991" d="M4.91,11.813c0.254,0,0.461-0.205,0.461-0.459V4.909c0-0.254-0.207-0.46-0.461-0.46
													c-0.254,0-0.46,0.206-0.46,0.46v6.445C4.45,11.608,4.656,11.813,4.91,11.813"></path>
												<path fill="#7A8991" d="M7.365,11.813c0.255,0,0.46-0.205,0.46-0.459V4.909c0-0.254-0.205-0.46-0.46-0.46s-0.461,0.206-0.461,0.46
													v6.445C6.904,11.608,7.11,11.813,7.365,11.813"></path>						
											</svg>