<svg version="1.1" xmlns="http://www.w3.org/2000/svg" xmlns:xlink="http://www.w3.org/1999/xlink" x="0px" y="0px" viewBox="0 0 28 29.64" style="enable-background:new 0 0 28 29.64;" xml:space="preserve">

								<g>
									<g>
										<path fill="#93D500" d="M19.24,17.43v9.53c0,1.11,0.9,2.02,2.02,2.02s2.02-0.9,2.02-2.02v-9.53H19.24z"></path>
									</g>
									<g>
										<rect x="19.24" y="17.43" fill="#7DAC51" width="4.03" height="2.99"></rect>
									</g>
									<g>
										<path fill="#FEFE71" d="M25.04,3.3l-2.7-2.25c-0.63-0.52-1.53-0.52-2.16,0l-2.7,2.25c-1.46,1.21-2.3,3.01-2.3,4.91v3.84
											c0,0.92,0.9,1.57,1.77,1.28l3.89-1.28c0.27-0.09,0.57-0.09,0.84,0l3.89,1.28c0.87,0.29,1.77-0.36,1.77-1.28V8.21
											C27.34,6.31,26.5,4.51,25.04,3.3z"></path>
									</g>
									<g>
										<path fill="#FFFFFF" d="M22.78,8.55l-1.09-0.9c-0.25-0.21-0.62-0.21-0.87,0l-1.09,0.9c-0.59,0.49-0.93,1.21-0.93,1.98v1.55
											c0,0.37,0.36,0.63,0.71,0.52l1.57-0.51c0.11-0.04,0.23-0.04,0.34,0l1.57,0.51c0.35,0.12,0.71-0.15,0.71-0.52v-1.55
											C23.7,9.77,23.36,9.04,22.78,8.55z"></path>
									</g>
									<g>
										<g>
											<g>
												<path d="M18.58,16.77v10.19c0,1.48,1.2,2.68,2.68,2.68c1.48,0,2.68-1.2,2.68-2.68V16.77H18.58z M22.61,26.96
													c0,0.75-0.61,1.36-1.36,1.36l0,0c-0.75,0-1.36-0.61-1.36-1.36v-8.87h2.71V26.96z"></path>
											</g>
										</g>
									</g>
									<g>
										<g>
											<g>
												<g>
													<path d="M25.46,2.79l-2.7-2.25c-0.87-0.72-2.13-0.72-3.01,0l-2.7,2.25c-1.62,1.34-2.54,3.32-2.54,5.42v3.84
														c0,0.65,0.3,1.25,0.83,1.63c0.35,0.25,0.76,0.38,1.17,0.38c0.21,0,0.42-0.03,0.63-0.1l3.89-1.28c0.14-0.05,0.29-0.05,0.43,0
														l0,0l3.89,1.28c0.62,0.2,1.28,0.1,1.81-0.28C27.7,13.3,28,12.71,28,12.05V8.21C28,6.11,27.07,4.13,25.46,2.79z M26.68,12.05
														c0,0.22-0.1,0.43-0.29,0.56c-0.18,0.13-0.41,0.17-0.62,0.1l-3.89-1.28l0,0c-0.41-0.13-0.84-0.13-1.25,0l-3.89,1.28
														c-0.21,0.07-0.44,0.03-0.62-0.1c-0.18-0.13-0.29-0.34-0.29-0.56V8.21c0-1.71,0.75-3.31,2.07-4.41l2.7-2.25
														c0.19-0.16,0.42-0.24,0.66-0.24c0.23,0,0.47,0.08,0.66,0.24l2.7,2.25c1.31,1.09,2.07,2.7,2.07,4.41V12.05z"></path>
												</g>
											</g>
										</g>
									</g>
									<g>
										<path d="M21.26,9.4c-0.36,0-0.66,0.3-0.66,0.66v7.25c0,0.36,0.3,0.66,0.66,0.66c0.36,0,0.66-0.3,0.66-0.66v-7.25
											C21.91,9.69,21.62,9.4,21.26,9.4z"></path>
									</g>
									<g>
										<g>
											<g>
												<path d="M23.27,16.77h-4.03c-0.36,0-0.66,0.3-0.66,0.66v2.99c0,0.36,0.3,0.66,0.66,0.66h4.03c0.36,0,0.66-0.3,0.66-0.66v-2.99
													C23.93,17.06,23.64,16.77,23.27,16.77z M22.61,19.76H19.9v-1.67h2.71V19.76z"></path>
											</g>
										</g>
									</g>
									<g>
										<g>
											<rect x="20.78" y="21.96" fill="#FFFFFF" width="0.94" height="1.24"></rect>
										</g>
										<g>
											<rect x="20.78" y="24" fill="#FFFFFF" width="0.94" height="2.11"></rect>
										</g>
									</g>
								</g>
								<g>
									<g>
										<path fill="#93D500" d="M4.73,17.43v9.53c0,1.11,0.9,2.02,2.02,2.02s2.02-0.9,2.02-2.02v-9.53H4.73z"></path>
									</g>
									<g>
										<rect x="4.73" y="17.43" fill="#FEFE71" width="4.03" height="2.99"></rect>
									</g>
									<g>
										<path fill="#FEFE71" d="M11.63,0.66L11.63,0.66c-0.66,0-1.2,0.54-1.2,1.2v3.98c0,0.61-0.5,1.11-1.11,1.11H9.06
											c-0.61,0-1.11-0.5-1.11-1.11V1.86c0-0.66-0.54-1.2-1.2-1.2c-0.66,0-1.2,0.54-1.2,1.2v3.98c0,0.61-0.5,1.11-1.11,1.11H4.17
											c-0.61,0-1.11-0.5-1.11-1.11V1.86c0-0.66-0.54-1.2-1.2-1.2c-0.66,0-1.2,0.54-1.2,1.2v4.26v2.93v2.32c0,1.03,0.83,1.86,1.86,1.86
											h8.44c1.03,0,1.86-0.83,1.86-1.86V9.05V6.12V1.86C12.83,1.2,12.29,0.66,11.63,0.66z"></path>
									</g>
									<g>
										<rect x="4.73" y="17.43" fill="#7DAC51" width="4.03" height="2.99"></rect>
									</g>
									<g>
										<g>
											<g>
												<path d="M4.07,16.77v4.31h5.35v-4.31H4.07z M8.1,19.76H5.39v-1.67H8.1V19.76z"></path>
											</g>
										</g>
									</g>
									<g>
										<path fill="#FFFFFF" d="M6.74,8.34c-1.11,0-2.02,0.9-2.02,2.02v2.87h4.03v-2.87C8.76,9.25,7.86,8.34,6.74,8.34z"></path>
									</g>
									<g>
										<g>
											<g>
												<path d="M4.07,16.77v10.19c0,1.48,1.2,2.68,2.68,2.68c1.48,0,2.68-1.2,2.68-2.68V16.77H4.07z M8.1,26.96
													c0,0.75-0.61,1.36-1.36,1.36h0c-0.75,0-1.36-0.61-1.36-1.36v-8.87H8.1V26.96z"></path>
											</g>
										</g>
									</g>
									<g>
										<path d="M6.74,9.4c-0.36,0-0.66,0.3-0.66,0.66v7.25c0,0.36,0.3,0.66,0.66,0.66c0.36,0,0.66-0.3,0.66-0.66v-7.25
											C7.4,9.69,7.11,9.4,6.74,9.4z"></path>
									</g>
									<g>
										<g>
											<g>
												<g>
													<path d="M11.63,0C10.6,0,9.76,0.84,9.76,1.86v3.98c0,0.25-0.2,0.45-0.45,0.45H9.06c-0.25,0-0.45-0.2-0.45-0.45V1.86
														C8.61,0.84,7.77,0,6.74,0C5.72,0,4.88,0.84,4.88,1.86v3.98c0,0.25-0.2,0.45-0.45,0.45H4.17c-0.25,0-0.45-0.2-0.45-0.45V1.86
														C3.72,0.84,2.89,0,1.86,0S0,0.84,0,1.86v9.51c0,1.39,1.13,2.52,2.52,2.52h8.44c1.39,0,2.52-1.13,2.52-2.52V1.86
														C13.49,0.84,12.65,0,11.63,0z M12.17,11.37c0,0.66-0.54,1.2-1.2,1.2H2.52c-0.66,0-1.2-0.54-1.2-1.2V1.86
														c0-0.3,0.24-0.54,0.54-0.54c0.3,0,0.54,0.24,0.54,0.54v3.98c0,0.97,0.79,1.77,1.77,1.77h0.26c0.97,0,1.77-0.79,1.77-1.77V1.86
														c0-0.3,0.24-0.54,0.54-0.54c0.3,0,0.54,0.24,0.54,0.54v3.98c0,0.97,0.79,1.77,1.77,1.77h0.26c0.97,0,1.77-0.79,1.77-1.77V1.86
														c0-0.3,0.24-0.54,0.54-0.54c0.3,0,0.54,0.24,0.54,0.54V11.37z"></path>
												</g>
											</g>
										</g>
									</g>
									<g>
										<g>
											<rect x="6.27" y="21.96" fill="#FFFFFF" width="0.94" height="1.24"></rect>
										</g>
										<g>
											<rect x="6.27" y="24" fill="#FFFFFF" width="0.94" height="2.11"></rect>
										</g>
									</g>
								</g>
							</svg>