<svg xmlns="http://www.w3.org/2000/svg" width="17.512" height="16.988" viewBox="0 0 17.512 16.988">
						<g transform="translate(-1248.827 -24.1)">
						    <path d="M1257.6,24.652l-.021.02-.02-.02a1.894,1.894,0,0,0-2.666-.007,1.834,1.834,0,0,0-.554,1.307,1.985,1.985,0,0,0,.612,1.407l2.485,2.468a.206.206,0,0,0,.143.059.2.2,0,0,0,.143-.059l2.486-2.468a1.979,1.979,0,0,0,.611-1.407,1.829,1.829,0,0,0-.553-1.307,1.894,1.894,0,0,0-2.666.007Z" fill="#94cc00"></path>
						    <path d="M1263.959,29.672c0-.006-.009-.009-.013-.014l-.014-.017-.012-.01a.144.144,0,0,0-.031-.019.134.134,0,0,0-.023-.013l-.007,0-3.287-1.136a.2.2,0,1,0-.132.383l2.766.956-5.623,2.195L1251.96,29.8l2.767-.956a.2.2,0,0,0-.132-.383l-3.287,1.136-.007,0-.023.012a.206.206,0,0,0-.031.02l-.013.011-.013.016s-.01.008-.014.014l-2.093,3.038a.2.2,0,0,0,.086.3l6.21,2.7a.189.189,0,0,0,.08.017.2.2,0,0,0,.172-.094l1.719-2.723v7.416l-5.8-2.525v-2.96a.2.2,0,1,0-.405,0v3.093a.2.2,0,0,0,.122.186l6.21,2.7h0l.01,0a.2.2,0,0,0,.069.014h0a.2.2,0,0,0,.069-.014l.01,0h0l6.209-2.7a.2.2,0,0,0,.122-.186V34.842a.2.2,0,1,0-.405,0V37.8l-5.8,2.525V32.911l1.719,2.723a.2.2,0,0,0,.171.094.193.193,0,0,0,.081-.017l6.209-2.7a.207.207,0,0,0,.115-.13.2.2,0,0,0-.029-.171Zm-8.547,5.6-5.825-2.534,1.863-2.7,3.014,1.176,2.817,1.1Zm4.343,0-1.869-2.961,2.816-1.1,3.015-1.176,1.862,2.7Z" fill="none" stroke="#2a2a2a" stroke-miterlimit="10" stroke-width="0.5"></path>
						</g>
					</svg>