<svg version="1.1" xmlns="http://www.w3.org/2000/svg" xmlns:xlink="http://www.w3.org/1999/xlink" x="0px" y="0px" viewBox="0 0 19 19" style="enable-background:new 0 0 19 19;" xml:space="preserve">
			   		<path fill="#2a2a2a" d="M18.8,17.6L14,12.9c1.1-1.4,1.8-3.1,1.8-5c0-4.4-3.5-7.9-7.9-7.9C3.5,0,0,3.5,0,7.9c0,4.4,3.5,7.9,7.9,7.9
				   c1.9,0,3.6-0.7,5-1.8l4.8,4.8c0.2,0.2,0.4,0.2,0.6,0.2c0.2,0,0.4-0.1,0.6-0.2C19.1,18.5,19.1,18,18.8,17.6 M1.6,7.9
				   c0-3.5,2.8-6.3,6.3-6.3c3.5,0,6.3,2.8,6.3,6.3c0,3.5-2.8,6.3-6.3,6.3C4.4,14.2,1.6,11.4,1.6,7.9"></path>
			   </svg>