<svg version="1.1" xmlns="http://www.w3.org/2000/svg" xmlns:xlink="http://www.w3.org/1999/xlink" viewBox="0 0 28 25.7" style="enable-background:new 0 0 28 25.7;" xml:space="preserve">
    <g>
        <path fill="#7AE3C5" d="M24.9,16.1V5.5c0-1.3-1.1-2.4-2.4-2.4c-1.3,0-2.4,1.1-2.4,2.4v10.5c-1.5,0.8-2.4,2.4-2.4,4.3
            c0.1,2.6,2.2,4.7,4.8,4.7c2.7,0,4.8-2.2,4.8-4.8C27.3,18.4,26.4,16.9,24.9,16.1"></path>
        <path d="M8.1,5C7.7,5,7.4,5.3,7.4,5.7V25c0,0.4,0.3,0.7,0.7,0.7c0.4,0,0.7-0.3,0.7-0.7V5.7C8.7,5.3,8.4,5,8.1,5"></path>
        <path fill="#95D600" d="M16.7,9.3c-1.8-0.9-4.1-0.9-6,0.4C8.9,10.9,7.9,13,8.1,15c1.8,0.9,4.1,0.9,6-0.4C15.9,13.5,16.8,11.4,16.7,9.3
            "></path>
        <path fill="#6CA439" d="M10.7,9.7C8.9,10.9,8.1,15,8.1,15l8.6-5.7C16.7,9.3,12.6,8.5,10.7,9.7"></path>
        <path d="M17.4,9.3c0-0.2-0.2-0.4-0.4-0.5c-2.1-1.1-4.7-0.9-6.6,0.4c-2,1.3-3.1,3.6-3,5.9c0,0.2,0.2,0.4,0.4,0.5
            c0.9,0.5,2,0.7,3,0.7c1.3,0,2.6-0.4,3.7-1.1C16.4,13.9,17.5,11.7,17.4,9.3 M13.7,14.1c-1.5,1-3.3,1.1-5,0.5c0-1.8,0.9-3.4,2.4-4.4
            c1.5-1,3.3-1.1,5-0.5C16,11.5,15.1,13.2,13.7,14.1"></path>
        <path fill="#95D600" d="M5.9,12c-1.5-1-3.2-1-4.7-0.3c-0.1,1.6,0.7,3.3,2.1,4.2c1.5,1,3.2,1,4.7,0.3C8.1,14.5,7.4,12.9,5.9,12"></path>
        <path fill="#6CA439" d="M8,16.2c-1.5,0.7-3.2,0.7-4.7-0.3c-1.5-1-2.2-2.6-2.1-4.2"></path>
        <path d="M6.3,11.4c-1.6-1.1-3.6-1.2-5.4-0.3c-0.2,0.1-0.3,0.3-0.4,0.5c-0.1,1.9,0.8,3.7,2.4,4.8c0.9,0.6,1.9,0.9,3,0.9
            c0.8,0,1.6-0.2,2.4-0.6c0.2-0.1,0.3-0.3,0.4-0.5C8.8,14.3,7.9,12.5,6.3,11.4 M3.7,15.3c-1.1-0.7-1.8-1.9-1.8-3.2
            c1.2-0.5,2.6-0.3,3.7,0.4s1.8,1.9,1.8,3.2C6.2,16.2,4.8,16.1,3.7,15.3"></path>
        <path d="M22.7,24.4H3.9c-1.4,0-2.6-1.2-2.6-2.6c0-1.4,1.2-2.6,2.6-2.6h0.7c0.4,0,0.7-0.3,0.7-0.7c0-0.4-0.3-0.7-0.7-0.7H3.9
            c-2.2,0-3.9,1.8-3.9,3.9c0,2.2,1.8,3.9,3.9,3.9h18.8c0.4,0,0.7-0.3,0.7-0.7S23,24.4,22.7,24.4"></path>
        <path fill="#7AE3C5" d="M8.3,7.1c-1,0-1.7,1.4-1.7,3.2s0.8,3.2,1.7,3.2c1,0,1.7-1.4,1.7-3.2S9.3,7.1,8.3,7.1"></path>
        <path fill="#7AE3C5" d="M8.3,0.7c-1,0-1.7,1.4-1.7,3.2c0,1.8,0.8,3.2,1.7,3.2c1,0,1.7-1.4,1.7-3.2C10.1,2.1,9.3,0.7,8.3,0.7"></path>
        <path d="M8.3,6.4c-1.4,0-2.4,1.7-2.4,3.9c0,2.2,1,3.9,2.4,3.9c1.4,0,2.4-1.7,2.4-3.9C10.7,8.1,9.7,6.4,8.3,6.4 M8.3,12.8
            c-0.2,0-0.5-0.2-0.7-0.6c-0.3-0.5-0.4-1.2-0.4-1.9c0-1.5,0.7-2.5,1.1-2.5c0.2,0,0.5,0.2,0.7,0.6c0.3,0.5,0.4,1.2,0.4,1.9
            C9.4,11.8,8.8,12.8,8.3,12.8"></path>
        <path d="M8.3,0C7,0,5.9,1.7,5.9,3.9s1,3.9,2.4,3.9c1.4,0,2.4-1.7,2.4-3.9S9.7,0,8.3,0 M8.3,6.4c-0.2,0-0.5-0.2-0.7-0.6
            C7.4,5.3,7.3,4.6,7.3,3.9c0-1.5,0.7-2.5,1.1-2.5c0.2,0,0.5,0.2,0.7,0.6c0.3,0.5,0.4,1.2,0.4,1.9C9.4,5.4,8.8,6.4,8.3,6.4"></path>
        <path fill="#7AE3C5" d="M11.5,5.3c-1.8,0-3.2,0.8-3.2,1.7c0,1,1.4,1.8,3.2,1.8c1.8,0,3.2-0.8,3.2-1.7C14.7,6.1,13.3,5.3,11.5,5.3"></path>
        <path fill="#7AE3C5" d="M5.1,5.3C3.4,5.3,1.9,6.1,1.9,7c0,1,1.4,1.8,3.2,1.8c1.8,0,3.2-0.8,3.2-1.7C8.3,6.1,6.9,5.3,5.1,5.3"></path>
        <path d="M11.5,4.7c-2.2,0-3.9,1-3.9,2.4c0,1.4,1.7,2.4,3.9,2.4s3.9-1,3.9-2.4C15.4,5.7,13.7,4.7,11.5,4.7 M13.5,7.7
            C13,8,12.3,8.1,11.5,8.1C10,8.1,9,7.5,9,7.1c0-0.2,0.2-0.5,0.6-0.7C10.1,6.1,10.8,6,11.5,6c1.5,0,2.5,0.7,2.5,1.1
            C14.1,7.3,13.9,7.5,13.5,7.7"></path>
        <path d="M5.1,4.7c-2.2,0-3.9,1-3.9,2.4c0,1.4,1.7,2.4,3.9,2.4c2.2,0,3.9-1,3.9-2.4C9,5.7,7.3,4.7,5.1,4.7 M7.1,7.7
            C6.6,8,5.9,8.1,5.1,8.1c-1.5,0-2.5-0.7-2.5-1.1c0-0.2,0.2-0.5,0.6-0.7C3.7,6.1,4.4,6,5.1,6c1.5,0,2.5,0.7,2.5,1.1
            C7.7,7.3,7.5,7.5,7.1,7.7"></path>
        <path fill="#F7F70B" d="M13.2,2.2C12.5,1.5,10.8,2,9.4,3.3c-1.3,1.3-1.8,3-1.1,3.8c0.7,0.7,2.4,0.2,3.8-1.1
            C13.4,4.6,13.9,2.9,13.2,2.2"></path>
        <path fill="#F7F70B" d="M8.3,7.1C7.6,6.3,5.9,6.8,4.6,8.2c-1.3,1.3-1.8,3-1.1,3.8c0.7,0.7,2.4,0.2,3.8-1.1C8.6,9.5,9.1,7.8,8.3,7.1"></path>
        <path fill="#F7F70B" d="M12.1,8.2c-1.3-1.3-3-1.8-3.8-1.1c-0.7,0.7-0.2,2.4,1.1,3.8c1.3,1.3,3,1.8,3.8,1.1
            C13.9,11.2,13.4,9.5,12.1,8.2"></path>
        <path fill="#F7F70B" d="M7.2,3.3C5.9,2,4.2,1.5,3.5,2.2C2.7,2.9,3.2,4.6,4.6,6c1.3,1.3,3,1.8,3.8,1.1C9.1,6.3,8.6,4.6,7.2,3.3"></path>
        <path d="M13.7,1.7c-1-1-3-0.5-4.7,1.1C8.3,3.6,7.7,4.4,7.5,5.2C7.2,6.2,7.3,7,7.9,7.5c0.4,0.4,0.8,0.5,1.4,0.5c1,0,2.2-0.6,3.3-1.6
            c0.7-0.7,1.3-1.6,1.5-2.4C14.3,3.1,14.2,2.3,13.7,1.7 M12.8,3.7c-0.2,0.6-0.6,1.3-1.2,1.8c-1.2,1.2-2.5,1.5-2.8,1.1
            c-0.2-0.2-0.2-0.5-0.1-1C8.9,5,9.3,4.3,9.9,3.8c0.9-0.9,1.8-1.2,2.4-1.2c0.2,0,0.4,0.1,0.5,0.1C12.9,2.8,12.9,3.2,12.8,3.7"></path>
        <path d="M8.8,6.6c-1-1-3-0.5-4.7,1.1c-0.7,0.7-1.3,1.6-1.5,2.4c-0.3,1-0.1,1.8,0.4,2.3c0.4,0.4,0.8,0.5,1.4,0.5
            c1,0,2.2-0.6,3.3-1.6C9.3,9.6,9.8,7.6,8.8,6.6 M7.9,8.5c-0.2,0.6-0.6,1.3-1.2,1.8c-1.2,1.2-2.5,1.5-2.8,1.1c-0.2-0.2-0.2-0.5-0.1-1
            c0.2-0.6,0.6-1.3,1.2-1.8c0.9-0.9,1.8-1.2,2.4-1.2c0.2,0,0.4,0,0.5,0.1C8,7.7,8.1,8.1,7.9,8.5"></path>
        <path d="M14.1,10.1c-0.2-0.8-0.8-1.7-1.5-2.4c-1.6-1.7-3.7-2.1-4.7-1.1c-1,1-0.5,3,1.1,4.7c1.1,1.1,2.3,1.6,3.3,1.6
            c0.6,0,1-0.2,1.4-0.5C14.2,11.9,14.3,11,14.1,10.1 M12.7,11.5c-0.4,0.4-1.6,0.1-2.8-1.1c-0.6-0.6-1-1.2-1.2-1.8
            c-0.1-0.5-0.1-0.8,0.1-1c0.1-0.1,0.3-0.1,0.5-0.1c0.6,0,1.5,0.4,2.4,1.2c0.6,0.6,1,1.2,1.2,1.8C12.9,10.9,12.9,11.3,12.7,11.5"></path>
        <path d="M9.2,5.2C9,4.4,8.4,3.6,7.7,2.8C6,1.2,4,0.7,3,1.7C2.5,2.3,2.3,3.1,2.6,4c0.2,0.8,0.8,1.7,1.5,2.4c1.1,1.1,2.3,1.6,3.3,1.6
            c0.6,0,1-0.2,1.4-0.5C9.3,7,9.5,6.2,9.2,5.2 M7.9,6.6C7.5,6.9,6.2,6.7,5.1,5.5c-0.6-0.6-1-1.2-1.2-1.8c-0.1-0.5-0.1-0.8,0.1-1
            C4,2.6,4.2,2.5,4.4,2.5c0.6,0,1.5,0.4,2.4,1.2c0.6,0.6,1,1.2,1.2,1.8C8.1,6.1,8,6.4,7.9,6.6"></path>
        <path fill="#F7F70B" d="M10.2,5.2c-1-1-2.7-1-3.7,0c-1,1-1,2.7,0,3.7c1,1,2.7,1,3.7,0C11.2,7.9,11.2,6.2,10.2,5.2"></path>
        <path fill="#FFFFFF" d="M9.1,6.3C8.7,5.9,8,5.9,7.6,6.3c-0.4,0.4-0.4,1.1,0,1.5c0.4,0.4,1.1,0.4,1.5,0C9.5,7.4,9.5,6.7,9.1,6.3"></path>
        <path d="M10.7,4.7C9.4,3.4,7.3,3.4,6,4.7C4.7,6,4.7,8.1,6,9.4c0.6,0.6,1.5,1,2.3,1c0.8,0,1.7-0.3,2.3-1C12,8.1,12,6,10.7,4.7
                M9.7,8.5L9.7,8.5c-0.8,0.8-2,0.8-2.8,0c-0.8-0.8-0.8-2,0-2.8c0.4-0.4,0.9-0.6,1.4-0.6c0.5,0,1,0.2,1.4,0.6
            C10.5,6.4,10.5,7.7,9.7,8.5"></path>
        <path d="M25.6,15.7V5.5c0-1.7-1.4-3.1-3.1-3.1c-1.7,0-3.1,1.4-3.1,3.1v10.2c-1.5,1-2.4,2.8-2.4,4.6c0.1,3,2.5,5.4,5.5,5.4
            c3,0,5.5-2.5,5.5-5.5C28,18.4,27.1,16.7,25.6,15.7 M22.5,24.4c-2.3,0-4.1-1.8-4.2-4.1c0-1.5,0.8-2.9,2.1-3.7
            c0.2-0.1,0.3-0.3,0.3-0.6V5.5c0-1,0.8-1.8,1.8-1.8c1,0,1.8,0.8,1.8,1.8v10.5c0,0.2,0.1,0.5,0.3,0.6c1.3,0.7,2.1,2.1,2.1,3.6
            C26.7,22.5,24.8,24.4,22.5,24.4"></path>
        <path fill="#FFFFFF" d="M22.5,18.2c-1.1,0-2.1,0.9-2.1,2.1c0,1.1,0.9,2.1,2.1,2.1c1.1,0,2.1-0.9,2.1-2.1
            C24.6,19.1,23.7,18.2,22.5,18.2"></path>
        <path d="M22.5,17.5c-1.5,0-2.7,1.2-2.7,2.7c0,1.5,1.2,2.7,2.7,2.7c1.5,0,2.7-1.2,2.7-2.7C25.3,18.7,24,17.5,22.5,17.5 M22.5,21.7
            c-0.8,0-1.4-0.6-1.4-1.4c0-0.8,0.6-1.4,1.4-1.4c0.8,0,1.4,0.6,1.4,1.4C24,21,23.3,21.7,22.5,21.7"></path>
        <path d="M21.4,6.8h-1.3c-0.4,0-0.7,0.3-0.7,0.7c0,0.4,0.3,0.7,0.7,0.7h1.3c0.4,0,0.7-0.3,0.7-0.7C22.1,7.1,21.8,6.8,21.4,6.8"></path>
        <path d="M21.4,9.8h-1.3c-0.4,0-0.7,0.3-0.7,0.7c0,0.4,0.3,0.7,0.7,0.7h1.3c0.4,0,0.7-0.3,0.7-0.7C22.1,10.1,21.8,9.8,21.4,9.8"></path>
        <path d="M21.4,12.9h-1.3c-0.4,0-0.7,0.3-0.7,0.7c0,0.4,0.3,0.7,0.7,0.7h1.3c0.4,0,0.7-0.3,0.7-0.7C22.1,13.2,21.8,12.9,21.4,12.9"></path>
        <rect x="22.7" y="9" fill="#FFFFFF" width="1" height="2.9"></rect>
        <rect x="22.7" y="7.1" fill="#FFFFFF" width="1" height="1.1"></rect>
    </g>
</svg>