<svg version="1.1" xmlns="http://www.w3.org/2000/svg" xmlns:xlink="http://www.w3.org/1999/xlink" viewBox="0 0 28 25.8" style="enable-background:new 0 0 28 25.8;" xml:space="preserve">
								<polygon fill="#D6CD1E" points="0.7,9.6 3.8,9.8 5.4,8.5 5.8,5.5 	"></polygon>
								<polygon fill="#08BF86" points="5.4,8.5 3.8,9.8 8.9,25.2 10.1,14.1 	"></polygon>
								<path fill="#F7F70B" d="M17.2,0.7c-4.3,0-6,3.9-6,3.9h12C23.2,4.6,21.5,0.7,17.2,0.7"></path>
								<polygon fill="#7AE3C5" points="23.2,4.6 11.2,4.6 8.9,25.2 25.5,25.2 	"></polygon>
								<polygon fill="#08BF86" points="23.2,4.6 11.2,4.6 18,4.6 20.3,25.2 25.5,25.2 	"></polygon>
								<path d="M26.1,25.1L23.8,4.5c0-0.3-0.3-0.6-0.7-0.6h-12c-0.3,0-0.6,0.3-0.7,0.6L8.2,25.1c0,0.2,0,0.4,0.2,0.5
									c0.1,0.1,0.3,0.2,0.5,0.2h16.6c0.2,0,0.4-0.1,0.5-0.2C26.1,25.5,26.2,25.3,26.1,25.1 M9.7,24.5l2.2-19.2h10.8l2.1,19.2H9.7z"></path>
								<path d="M23.6,7.4H10.8c-0.4,0-0.7,0.3-0.7,0.7c0,0.4,0.3,0.7,0.7,0.7h12.7c0.4,0,0.7-0.3,0.7-0.7C24.2,7.7,23.9,7.4,23.6,7.4"></path>
								<path d="M23.8,4.3C23.7,4.2,21.9,0,17.2,0c-4.7,0-6.5,4.2-6.6,4.3c-0.1,0.2-0.1,0.4,0.1,0.6c0.1,0.2,0.3,0.3,0.6,0.3h12
									c0.2,0,0.4-0.1,0.6-0.3C23.9,4.8,23.9,4.6,23.8,4.3 M12.4,3.9c0.7-1,2.2-2.6,4.8-2.6c2.6,0,4.1,1.5,4.8,2.6H12.4z"></path>
								<path d="M10.7,13.6L5.9,8.1C5.7,7.8,5.3,7.8,5,8L3.3,9.3C3.1,9.5,3,9.8,3.1,10.1l5.1,15.3c0.1,0.3,0.4,0.5,0.6,0.5c0,0,0,0,0.1,0
									c0.3,0,0.6-0.3,0.6-0.6l1.2-11.1C10.8,13.9,10.8,13.8,10.7,13.6 M8.6,22.1l-4-12l0.8-0.6l4.1,4.8L8.6,22.1z"></path>
								<path d="M6.1,4.9C5.9,4.8,5.6,4.8,5.4,5L0.3,9C0,9.2-0.1,9.5,0,9.8c0.1,0.3,0.3,0.5,0.6,0.5l3.1,0.3c0,0,0,0,0.1,0
									c0.2,0,0.3-0.1,0.4-0.1L5.8,9C6,8.9,6.1,8.8,6.1,8.6l0.4-3C6.5,5.3,6.3,5.1,6.1,4.9 M4.8,8.2l-1.2,1L2.4,9l2.5-2L4.8,8.2z"></path>
								<path d="M22.4,10.7h-1.5c-0.4,0-0.7,0.3-0.7,0.7c0,0.4,0.3,0.7,0.7,0.7h1.5c2.3,0,4.3,1.9,4.3,4.3v2.8h-5.8c-0.4,0-0.7,0.3-0.7,0.7
									c0,0.4,0.3,0.7,0.7,0.7h6.4c0.4,0,0.7-0.3,0.7-0.7v-3.5C28,13.2,25.5,10.7,22.4,10.7"></path>
								<rect x="11" y="16.3" transform="matrix(0.1048 -0.9945 0.9945 0.1048 -5.1654 27.8913)" fill="#FFFFFF" width="3.8" height="1"></rect>
								<rect x="12.3" y="11.1" transform="matrix(0.1048 -0.9945 0.9945 0.1048 0.5329 23.7558)" fill="#FFFFFF" width="2.3" height="1"></rect>
							</svg>