<svg xmlns="http://www.w3.org/2000/svg" xmlns:xlink="http://www.w3.org/1999/xlink" x="0px" y="0px" viewBox="0 0 16.6 16.6" style="enable-background:new 0 0 16.6 16.6;" xml:space="preserve">
										<path fill="#E6E6E6" d="M16.5,4.9l-2.4-4.5C14,0.1,13.7,0,13.5,0H3.1C2.9,0,2.6,0.1,2.5,0.4L0.1,4.9C0,5.1,0,5.4,0.1,5.6l7.6,10.7
										c0.1,0.2,0.3,0.3,0.6,0.3c0.2,0,0.4-0.1,0.6-0.3l7.6-10.7C16.6,5.4,16.6,5.1,16.5,4.9 M14.9,4.7H12l-1.4-3.3h2.4L14.9,4.7z M4.6,5.8
										l2.1,6.7L1.9,5.8H4.6z M10.9,5.8l-2.6,8.4L5.7,5.8H10.9z M5.7,4.7l1.4-3.3h2.4l1.4,3.3H5.7z M12,5.8h2.7l-4.8,6.7L12,5.8z M3.5,1.4
										H6L4.6,4.7H1.8L3.5,1.4z"></path>
									</svg>